<?xml version="1.0" encoding="iso-8859-1"?>
<!-- Generator: Adobe Illustrator 18.0.0, SVG Export Plug-In . SVG Version: 6.00 Build 0)  -->
<!DOCTYPE svg PUBLIC "-//W3C//DTD SVG 1.1//EN" "http://www.w3.org/Graphics/SVG/1.1/DTD/svg11.dtd">
<svg version="1.1" id="Capa_1" xmlns="http://www.w3.org/2000/svg" xmlns:xlink="http://www.w3.org/1999/xlink" x="0px" y="0px"
	 viewBox="0 0 385.69 385.69" style="enable-background:new 0 0 385.69 385.69;" xml:space="preserve">
<g>
	<path d="M357.616,88.556H220.279l80.402-36.936c1.913-0.879,3.227-2.697,3.458-4.791c0.232-2.093-0.649-4.154-2.324-5.432
		L249.148,1.23c-1.36-1.038-3.1-1.445-4.779-1.12c-1.681,0.325-3.142,1.352-4.016,2.824l-47.509,79.884L145.336,2.934
		c-0.874-1.472-2.335-2.499-4.016-2.824c-1.678-0.324-3.418,0.083-4.779,1.12L83.874,41.398c-1.675,1.277-2.558,3.339-2.325,5.432
		c0.232,2.094,1.545,3.912,3.459,4.791l80.402,36.936H28.073c-3.313,0-6,2.687-6,6v57.236c0,3.313,2.687,6,6,6h16.205V379.69
		c0,3.313,2.687,6,6,6h285.133c3.314,0,6-2.687,6-6V157.792h16.205c3.314,0,6-2.687,6-6V94.556
		C363.616,91.242,360.93,88.556,357.616,88.556z M113.318,372.924c-0.513,0.168-0.982,0.404-1.414,0.686
		c-0.139-0.173-0.273-0.348-0.438-0.504c-14.31-13.595-20.434-27.42-16.384-36.981c1.967-4.643,6.305-7.63,10.762-7.45
		c4.168,0.173,7.399,3.116,9.099,8.287l0.025-0.008c0.292,0.892,0.771,1.735,1.491,2.435c2.376,2.31,6.175,2.258,8.484-0.118
		c3.783-3.89,7.966-5.123,11.779-3.471c4.082,1.768,6.67,6.32,6.44,11.327C142.695,357.305,131.539,366.948,113.318,372.924z
		 M166.155,314.684c-0.244,0.077-0.493,0.152-0.739,0.229c-19.675-18.512-18.66-31.171-17.227-35.866
		c1.446-4.741,5.224-8.19,9.626-8.785c1.963-0.264,5.515-0.104,8.341,3.524V314.684z M166.155,226.891
		c-5.428,4.771-13.383,8.852-23.28,11.94c-14.407-13.605-20.686-27.29-16.828-36.99c2.19-5.509,6.977-7.812,10.779-7.744
		c4.217,0.129,7.484,3.073,9.199,8.292l0.025-0.008c0.292,0.892,0.772,1.735,1.492,2.436c1.166,1.134,2.674,1.698,4.182,1.698
		c1.564,0,3.126-0.607,4.303-1.816c3.243-3.336,6.806-4.704,10.128-3.997V226.891z M166.155,188.626
		c-4.142-0.342-8.37,0.599-12.302,2.76c-3.963-5.713-9.829-9.075-16.662-9.283c-9.588-0.311-18.541,5.859-22.296,15.305
		c-2.888,7.264-6.481,26.932,22.442,52.629c1.143,1.016,2.565,1.515,3.982,1.515v0.002c0.533,0,1.078-0.072,1.617-0.224
		c9.098-2.541,16.844-5.784,23.218-9.667v17.754c-3.096-1.134-6.472-1.518-9.95-1.047c-9.033,1.222-16.686,7.964-19.495,17.177
		c-2.688,8.814-3.252,27.104,23.163,50.571c1.143,1.016,2.566,1.515,3.983,1.515c0.784,0,1.565-0.158,2.299-0.462v46.52h-27.188
		c13.61-9.794,15.941-20.723,16.184-26.012c0.457-9.955-5.032-19.153-13.66-22.89c-6.141-2.66-12.771-2.17-18.735,1.155
		c-3.917-5.629-9.692-8.98-16.412-9.26c-9.427-0.364-18.403,5.539-22.31,14.76c-2.592,6.117-5.996,21.544,11.485,42.246h-39.24
		v-13.498c18.568-10.173,22.218-22.713,22.685-29.509c0.602-8.72-3.321-17.009-10.235-21.634c-3.765-2.517-8.097-3.675-12.45-3.481
		v-77.744c1.551,1.546,3.181,3.089,4.907,4.623c1.143,1.016,2.565,1.515,3.982,1.515c0,0,1.835-0.286,1.837-0.286
		c37.061-10.424,42.439-29.612,43.029-37.392c0.767-10.136-4.589-19.593-13.327-23.532c-6.223-2.806-12.958-2.361-19.016,1.02
		c-2.834-4.071-6.657-6.96-11.209-8.359c-3.305-1.016-6.804-1.143-10.204-0.48v-7.141h43.714c3.835,5.396,8.798,10.82,14.813,16.163
		c1.142,1.015,2.562,1.514,3.98,1.515v0.002c0.535,0,1.078-0.072,1.618-0.223c14.666-4.097,25.847-9.966,33.308-17.457h12.444
		V188.626z M56.278,345.978v-28.421c2.603-0.274,4.631,0.698,5.778,1.467c3.352,2.241,5.242,6.393,4.936,10.834
		C66.603,335.52,62.797,341.142,56.278,345.978z M56.278,209.504v-32.085c2.185-0.975,4.55-1.191,6.677-0.537
		c3.141,0.966,5.533,3.703,6.918,7.917c0.83,2.525,3.178,4.128,5.699,4.128c0.621,0,1.252-0.098,1.875-0.302
		c0.953-0.313,1.772-0.846,2.426-1.518l0.002,0.002c3.828-3.938,8.056-5.151,11.9-3.418c3.455,1.558,6.74,5.775,6.293,11.688
		c-0.788,10.409-12.431,19.954-31.345,25.864C62.547,217.304,59.045,213.371,56.278,209.504z M115.43,157.792h17.499
		c-3.721,1.85-7.939,3.509-12.589,4.958C118.584,161.095,116.94,159.441,115.43,157.792z M166.155,145.792H34.073v-45.236h132.082
		V145.792z M99.09,44.884l39.375-30.029l39.372,66.204L99.09,44.884z M207.534,373.69h-29.379V100.556h29.379V373.69z
		 M247.225,14.855l39.374,30.029l-78.746,36.175L247.225,14.855z M219.534,157.792h7.683c-1.146,3.753-3.771,7.424-7.683,10.8
		V157.792z M219.534,256.265v-41.246c1.085,1.302,1.984,2.952,2.644,4.958c0.83,2.525,3.178,4.128,5.699,4.128
		c0.621,0,1.252-0.098,1.875-0.302c0.953-0.313,1.771-0.846,2.426-1.519l0.002,0.002c3.828-3.937,8.056-5.15,11.9-3.417
		c3.455,1.558,6.741,5.776,6.294,11.688C249.593,240.875,238.152,250.344,219.534,256.265z M246.621,373.69
		c1.296-5.573,5.29-8.857,9.254-9.653c5.116-1.034,9.366,2.003,11.371,8.104c0.187,0.566,0.451,1.084,0.774,1.55H246.621z
		 M278.033,373.69c3.349-3.073,7.001-4.126,10.378-2.951c1.644,0.57,3.09,1.602,4.239,2.951H278.033z M329.411,345.566
		c-3.5,1.677-7.415,3.19-11.697,4.526c-14.407-13.607-20.686-27.292-16.828-36.992c2.191-5.509,6.99-7.893,10.78-7.743
		c4.216,0.128,7.482,3.072,9.197,8.29l0.025-0.008c0.292,0.893,0.771,1.736,1.492,2.436c1.166,1.134,2.675,1.698,4.183,1.698
		c0.981,0,1.962-0.24,2.848-0.718V345.566z M329.411,228.071c-1.305-0.999-2.721-1.864-4.246-2.552
		c-6.223-2.806-12.961-2.36-19.022,1.023c-3.962-5.699-9.822-9.054-16.647-9.262c-9.581-0.289-18.541,5.859-22.296,15.305
		c-2.888,7.264-6.481,26.932,22.443,52.629c1.142,1.015,2.563,1.514,3.98,1.515v0.002c0.535,0,1.078-0.072,1.618-0.224
		c17.455-4.875,27.917-11.691,34.169-18.361v34.082c-0.245,0.125-0.481,0.276-0.724,0.41c-3.962-5.708-9.826-9.068-16.656-9.276
		c-9.568-0.267-18.54,5.858-22.296,15.305c-2.889,7.263-6.482,26.932,22.441,52.63c0.053,0.047,1.495,1.3,2.658,1.497
		c1.249,0.212,2.402-0.053,2.941-0.204c4.141-1.156,8.025-2.469,11.635-3.921v15.021h-23.249c-2.27-6.679-7.315-12.03-13.814-14.287
		c-5.795-2.012-11.822-1.361-17.297,1.706c-5.521-7.908-14.185-10.313-21.539-8.838c-8.951,1.797-17.521,9.535-19.079,21.419
		h-14.899v-48.617c3.706,5.735,9.001,11.98,16.491,18.635c1.143,1.016,2.565,1.515,3.982,1.515v0.002
		c0.534,0,1.077-0.072,1.617-0.224c37.263-10.408,42.659-29.66,43.249-37.455c0.768-10.137-4.588-19.594-13.327-23.533
		c-6.224-2.805-12.961-2.361-19.021,1.023c-3.963-5.699-9.823-9.053-16.647-9.261c-6.103-0.204-11.936,2.229-16.345,6.451v-13.438
		c36.853-10.438,42.217-29.562,42.805-37.323c0.768-10.137-4.588-19.595-13.327-23.534c-6.225-2.805-12.963-2.36-19.023,1.025
		c-2.702-3.879-6.283-6.676-10.454-8.124v-17.499c14.257-8.572,18.753-18.502,19.95-25.54h12.517
		c-0.999,2.949-1.521,6.138-1.488,9.484c0.093,9.296,4.398,24.104,24.381,41.856c1.142,1.015,2.563,1.514,3.98,1.515v0.002
		c0.535,0,1.078-0.072,1.618-0.224c37.265-10.408,42.659-29.66,43.25-37.454c0.418-5.525-0.993-10.842-3.77-15.18h9.439V228.071z
		 M326.526,248.148c-0.789,10.409-12.432,19.954-31.347,25.863c-14.406-13.605-20.685-27.291-16.829-36.991
		c2.191-5.509,6.994-7.83,10.781-7.744c4.217,0.129,7.483,3.073,9.199,8.291l0.024-0.008c0.292,0.892,0.771,1.735,1.491,2.435
		c2.376,2.313,6.175,2.259,8.484-0.117c3.83-3.937,8.057-5.15,11.902-3.417C323.689,238.017,326.974,242.235,326.526,248.148z
		 M224.734,295.512c2.189-5.51,6.984-7.856,10.78-7.743c4.216,0.128,7.483,3.072,9.198,8.29l0.025-0.009
		c0.293,0.893,0.772,1.735,1.492,2.436c2.375,2.313,6.174,2.258,8.483-0.117c3.83-3.936,8.057-5.148,11.901-3.417
		c3.454,1.558,6.741,5.775,6.293,11.689c-0.788,10.408-12.432,19.953-31.345,25.863
		C227.156,318.897,220.877,305.213,224.734,295.512z M262.512,167.156c-0.036-3.63,0.986-6.871,2.885-9.364h16.457
		c0.68,1.069,1.266,2.29,1.726,3.692c0.02,0.06,0.531,1.409,1.311,2.197s1.687,1.266,1.691,1.259
		c2.279,1.154,5.124,0.783,6.999-1.145c3.83-3.938,8.059-5.153,11.902-3.417c3.455,1.557,6.74,5.774,6.293,11.687
		c-0.788,10.41-12.434,19.955-31.35,25.865C268.939,187.091,262.603,176.243,262.512,167.156z M351.616,145.792H219.534v-45.236
		h132.082V145.792z"/>
	<path d="M100.222,249.857c-3.963-5.7-9.823-9.055-16.648-9.263c-9.578-0.302-18.54,5.859-22.296,15.305
		c-2.888,7.264-6.481,26.932,22.442,52.629c1.143,1.016,2.565,1.515,3.982,1.515v0.002c0.534,0,1.078-0.072,1.617-0.224
		c37.264-10.409,42.66-29.661,43.25-37.455c0.768-10.137-4.589-19.594-13.328-23.533
		C113.02,246.028,106.282,246.474,100.222,249.857z M120.605,271.46c-0.788,10.409-12.432,19.954-31.346,25.864
		c-14.407-13.606-20.687-27.291-16.829-36.991c2.189-5.51,6.995-7.824,10.779-7.744c4.217,0.129,7.484,3.073,9.199,8.292
		l0.025-0.008c0.292,0.892,0.772,1.735,1.492,2.435c2.375,2.311,6.174,2.258,8.484-0.118c3.829-3.938,8.059-5.149,11.9-3.417
		C117.766,261.33,121.052,265.548,120.605,271.46z"/>
</g>
<g>
</g>
<g>
</g>
<g>
</g>
<g>
</g>
<g>
</g>
<g>
</g>
<g>
</g>
<g>
</g>
<g>
</g>
<g>
</g>
<g>
</g>
<g>
</g>
<g>
</g>
<g>
</g>
<g>
</g>
</svg>
